<svg width="2642" xmlns="http://www.w3.org/2000/svg" height="660" id="screenshot-e9e09411-c115-80d3-8004-a48e935bf5a3" fill="none" version="1.1"><style>@font-face{font-family:&apos;Bai Jamjuree&apos;;font-style:italic;font-weight:700;font-display:block;src:url(https://design.penpot.app/internal/gfonts/font/baijamjuree/v11/LDIoapSCOBt_aeQQ7ftydoa8W_pylqoi0yyygA.woff2) format(&apos;woff2&apos;);unicode-range:U+0E01-0E5B, U+200C-200D, U+25CC}@font-face{font-family:&apos;Bai Jamjuree&apos;;font-style:italic;font-weight:700;font-display:block;src:url(https://design.penpot.app/internal/gfonts/font/baijamjuree/v11/LDIoapSCOBt_aeQQ7ftydoa8W_pylqo50yyygA.woff2) format(&apos;woff2&apos;);unicode-range:U+0102-0103, U+0110-0111, U+0128-0129, U+0168-0169, U+01A0-01A1, U+01AF-01B0, U+0300-0301, U+0303-0304, U+0308-0309, U+0323, U+0329, U+1EA0-1EF9, U+20AB}@font-face{font-family:&apos;Bai Jamjuree&apos;;font-style:italic;font-weight:700;font-display:block;src:url(https://design.penpot.app/internal/gfonts/font/baijamjuree/v11/LDIoapSCOBt_aeQQ7ftydoa8W_pylqo40yyygA.woff2) format(&apos;woff2&apos;);unicode-range:U+0100-02AF, U+0304, U+0308, U+0329, U+1E00-1E9F, U+1EF2-1EFF, U+2020, U+20A0-20AB, U+20AD-20C0, U+2113, U+2C60-2C7F, U+A720-A7FF}@font-face{font-family:&apos;Bai Jamjuree&apos;;font-style:italic;font-weight:700;font-display:block;src:url(https://design.penpot.app/internal/gfonts/font/baijamjuree/v11/LDIoapSCOBt_aeQQ7ftydoa8W_pylqo20yw.woff2) format(&apos;woff2&apos;);unicode-range:U+0000-00FF, U+0131, U+0152-0153, U+02BB-02BC, U+02C6, U+02DA, U+02DC, U+0304, U+0308, U+0329, U+2000-206F, U+2074, U+20AC, U+2122, U+2191, U+2193, U+2212, U+2215, U+FEFF, U+FFFD}</style><g id="shape-e9e09411-c115-80d3-8004-a48e935bf5a3" data-testid="footer-logo"><defs><clipPath id="frame-clip-e9e09411-c115-80d3-8004-a48e935bf5a3-render-1" class="frame-clip frame-clip-def"><rect rx="0" ry="0" width="2642" height="660"/></clipPath></defs><g clip-path="url(#frame-clip-e9e09411-c115-80d3-8004-a48e935bf5a3-render-1)"><g class="fills" id="fills-e9e09411-c115-80d3-8004-a48e935bf5a3"><rect rx="0" ry="0" width="2642" height="660" class="frame-background"/></g><g class="frame-children"><g id="shape-e9e09411-c115-80d3-8004-a48e935bf5a4" data-testid="Path"><path d="M149.041 124.534v51.488s0 9.765 14.355 13.316c14.356 3.551 313.139 0 313.139 0s61.013 18.642 22.431 68.355c-.602.776-1.941 2.023-2.691 2.663-45.76 39.06-95.108 82.558-95.108 82.558l-114.848-85.221s-96.902-52.376-138.176 57.702c-.322.86 0 .887 0 2.663 0 115.376 1.795 171.331 1.795 171.331s26.917 120.731 143.559 55.039c.883-.497 10.91-9.113 11.664-9.765 92.417-79.895 99.595-86.109 99.595-86.109l150.737 113.628h26.917s10.767 0 14.356-12.428c3.589-12.428-1.794-56.814-1.794-56.814l-127.409-99.425 95.108-86.998s113.053-131.383-73.574-195.299c-1.432-.49-.897 0-8.973 0H162.499s-10.767 1.775-13.458 13.316Zm187.524 275.195-86.136 76.344s-11.664 5.326-17.945-6.214c-6.28-11.54 0-135.822 0-135.822s4.487-12.428 17.945-6.214c13.459 6.214 86.136 65.692 86.136 65.692s3.589 2.663 0 6.214Z" style="fill: rgb(255, 255, 255); fill-opacity: 1;" class="fills" id="fills-e9e09411-c115-80d3-8004-a48e935bf5a4"/></g><g class="text-container" id="shape-e9e09411-c115-80d3-8004-a48e935bf5a5" data-testid="ReSole"><defs><pattern patternUnits="userSpaceOnUse" x="746" y="-79" width="1777.203" height="750" id="fill-0-render-3-0"><rect width="1777.203" height="750" style="fill: rgb(255, 255, 255); fill-opacity: 1;"/></pattern></defs><text x="746" y="656" dominant-baseline="ideographic" textLength="1777.203" lengthAdjust="spacingAndGlyphs" style="text-transform: lowercase; font-family: &quot;Bai Jamjuree&quot;; letter-spacing: normal; font-style: italic; font-weight: 700; white-space: pre; font-size: 600px; text-decoration: none solid rgb(255, 255, 255); direction: ltr; fill: rgb(255, 255, 255); fill-opacity: 1;" class="fills" id="fills-e9e09411-c115-80d3-8004-a48e935bf5a5">ReSole</text></g></g></g></g></svg>